<svg xmlns="http://www.w3.org/2000/svg" viewBox="0 0 116.21 126.6"><g id="Capa_2" data-name="Capa 2"><g id="Capa_1-2" data-name="Capa 1"><path d="M80.86,0h4a1.93,1.93,0,0,0,.44.2A15.73,15.73,0,0,1,97.35,9.34a1,1,0,0,0,1.23.64,16.05,16.05,0,0,1,11.75,28.39c-.5.41-1,.8-1.57,1.21a16.76,16.76,0,0,1,2.52,9.48,1.18,1.18,0,0,0,.51.83A3.88,3.88,0,0,1,113.7,54q-.75,6.95-1.48,13.88-2.58,24.27-5.17,48.53a11.1,11.1,0,0,1-11.23,10.19q-35.22,0-70.46,0a11,11,0,0,1-11.2-9.94c-1.05-9.33-2-18.67-3-28Q9.39,71.79,7.61,55c-.36-3.41,0-4.08,3-5.66-.2-.36-.4-.72-.61-1.07C7.53,44,5.05,39.69,2.6,35.4A18.09,18.09,0,0,1,.4,22.31a18.52,18.52,0,0,1,34.2-5.63C36.82,20.44,39,24.24,41.15,28l.72,1.19a21.85,21.85,0,0,1,8.57-3.84,1.83,1.83,0,0,0,1.73-1.86A16,16,0,0,1,66.87,9.94a1.66,1.66,0,0,0,1.66-1.07,14.86,14.86,0,0,1,7.33-7.23A42.36,42.36,0,0,1,80.86,0ZM15.53,58.9c.06.76.08,1.33.14,1.9Q17,73,18.29,85.24q1.59,14.87,3.17,29.72c.35,3.22,1.52,4.21,4.74,4.21H94.93c.33,0,.66,0,1,0a3.7,3.7,0,0,0,3.72-3.43q1.26-11.53,2.47-23.09,1.45-13.58,2.89-27.14c.23-2.16.44-4.33.67-6.61C75.58,69.39,45.64,69.38,15.53,58.9Zm61.17-.69c.55,0,.71,0,.86-.05a119.14,119.14,0,0,0,24.77-6,2,2,0,0,0,1-1.09,8.4,8.4,0,0,0-2.85-9.62,3.91,3.91,0,0,1-1.78-4.15c.39-1.73,1.65-2.52,3.32-2.9A8.61,8.61,0,1,0,97,18c-3,1.13-5.09-.07-5.66-3.25a8.58,8.58,0,0,0-16.89-.4c-.6,2.54-2.23,3.55-4.84,3.21a11.52,11.52,0,0,0-3.66.08c-3.53.75-6.43,4.21-6.34,7.41,8.6,1.76,14.62,6.74,18.15,15a57.25,57.25,0,0,0,3.86-14.08c.32-2.4,2.1-4,4.24-3.66s3.47,2.27,3.12,4.68a67.8,67.8,0,0,1-9.58,26.11C78.4,54.63,77.67,56.33,76.7,58.21ZM38.78,38.75c-1-1.76-1.93-3.28-2.76-4.83a1.31,1.31,0,0,0-1.46-.79c-2,.16-4,.26-5.92.38-2.55.14-5.1.33-7.65.39a3.57,3.57,0,0,1-3.62-3.09,3.65,3.65,0,0,1,2.26-4,8.45,8.45,0,0,1,2.31-.36c3.06-.21,6.13-.38,9.47-.58-1.41-2.34-2.56-4.57-4-6.6a10.89,10.89,0,0,0-11.74-4.06,11.08,11.08,0,0,0-6.61,16.5Q14.9,42,20.87,52.16a2.81,2.81,0,0,0,1.46,1.14,121.47,121.47,0,0,0,22.12,5c1.89.24,3.79.4,5.92.63-.34-.65-.54-1-.76-1.43-1.76-3.06-3.71-6-5.25-9.22-1-2.06-2.23-2.44-4.33-2.22-3.84.4-7.72.54-11.59.69a3.57,3.57,0,0,1-3.68-3.3,3.68,3.68,0,0,1,3-4,12.36,12.36,0,0,1,1.72-.16Zm6.93-3a1.51,1.51,0,0,0,.09.31Q52.34,47.38,58.9,58.7a1.57,1.57,0,0,0,1.15.61c2,0,4-.12,5.93-.08a2.83,2.83,0,0,0,2.52-1.4,16,16,0,0,0-5.83-24.06C57.13,31.05,49.91,31.87,45.71,35.73Z"/><path d="M60.62,78.38H84.7c2.89,0,4.32,1.44,4.32,4.33q0,9.26,0,18.53c0,2.89-1.43,4.33-4.31,4.33q-24.15,0-48.3,0c-2.8,0-4.25-1.46-4.25-4.27q0-9.31,0-18.65c0-2.81,1.44-4.27,4.24-4.27Zm-21,19.69H81.51V85.86H39.63Z"/></g></g></svg>