<?xml version="1.0" encoding="UTF-8"?>
<svg id="Capa_1" data-name="Capa 1" xmlns="http://www.w3.org/2000/svg" viewBox="0 0 379.37 366">
  <defs>
    <style>
      .cls-1 {
        fill: #fff;
      }
    </style>
  </defs>
  <path class="cls-1" d="M0,155.39c1.11-.94,2.29-1.8,3.31-2.82C53,102.91,102.67,53.24,152.32,3.54c1.01-1.01,1.68-2.35,2.5-3.54,.45,.29,.9,.59,1.35,.88,0,1.29,0,2.59,0,3.88,0,27.78,0,55.56,0,83.33,0,9.84,1.89,11.93,11.87,12.09,28.07,.45,55.56,4.45,82.12,13.71,43.73,15.26,79.24,41.14,103.47,81.23,13.34,22.07,21.6,46.05,23.96,71.66,1.55,16.79,1.38,33.76,1.65,50.65,.25,15.79,.05,31.6,.05,48.55-.94-1.85-1.46-2.71-1.83-3.63-11.58-29.03-27.5-55.43-48.4-78.7-31.07-34.61-68.34-58.99-114.47-68.53-16.56-3.42-33.32-3.73-50.12-3.37-5.68,.12-8.3,3.5-8.31,10-.02,28.4,0,56.79,0,85.19,0,1.32,0,2.65,0,4.98-1.57-1.49-2.51-2.35-3.41-3.25C102.74,258.66,52.73,208.64,2.7,158.62c-.86-.86-1.8-1.66-2.7-2.48,0-.25,0-.49,0-.74Z"/>
</svg>