<svg xmlns="http://www.w3.org/2000/svg" viewBox="0 0 117.86 126.28"><g id="Capa_2" data-name="Capa 2"><g id="Capa_1-2" data-name="Capa 1"><path d="M75.79,50.51H3.23C.57,50.51.1,50,0,47.26c-.11-4.21.17-8.32,2.34-12.08a18.67,18.67,0,0,1,13.78-9.69c.21,0,.41-.09.67-.15V21.16c-.47-.1-1-.19-1.46-.32A6.25,6.25,0,0,1,10.58,15c-.06-2.94-.07-5.87,0-8.81A6.22,6.22,0,0,1,16.74,0Q40,0,63.28,0a6.26,6.26,0,0,1,6.19,6.24c0,2.54,0,5.08,0,7.62,0,4.26-2,6.57-6.25,7.25v4.24a19.12,19.12,0,0,1,9.15,3.68c4.81,3.69,7.53,8.58,7.57,14.64.12,15.47,0,30.94,0,46.41,0,1.59-.75,2.47-2.07,2.48S75.79,91.7,75.79,90V50.51Zm-.12-4.24A14.75,14.75,0,0,0,61.5,29.47c-1.83-.08-2.53-.78-2.55-2.59s0-3.83,0-5.73H21.08v5.48c0,2.1-.65,2.74-2.7,2.85A14.38,14.38,0,0,0,6.84,35.83,15,15,0,0,0,4.33,46.27ZM40.15,4.22H17.41c-1.93,0-2.63.69-2.64,2.59q0,3.75,0,7.5c0,1.8.75,2.53,2.58,2.53H62.69c1.83,0,2.56-.73,2.57-2.54,0-2.41,0-4.82,0-7.22,0-2.25-.63-2.86-2.91-2.86Z"/><path d="M86.31,126.26c-5.61,0-11.22,0-16.83,0a14.73,14.73,0,0,1-14.72-15.51c.29-7.34,6.57-13.79,13.92-13.88q17.61-.23,35.24,0c7.31.08,13.48,6.36,13.92,13.74A14.72,14.72,0,0,1,105.62,126a22.38,22.38,0,0,1-3.27.24C97,126.27,91.66,126.26,86.31,126.26ZM84.15,101c-5.31,0-10.51,0-15.71,0a7.18,7.18,0,0,0-1.93.38A10.5,10.5,0,0,0,69.18,122c4,.07,8,0,11.95,0h3Zm4.32,21h1.18c4.73,0,9.46.11,14.18,0a10.49,10.49,0,0,0,.22-20.92c-5.11-.21-10.24,0-15.36,0-.07,0-.14.09-.22.16Z"/><path d="M4.24,101H47.48a7.26,7.26,0,0,1,1.32,0,2.1,2.1,0,0,1,.11,4.1,7.48,7.48,0,0,1-1.57.07H4.24v13.51c0,2.83.5,3.32,3.39,3.32H51.56c2.19,0,3.14.63,3.14,2.09s-1,2.12-3.12,2.12H7.26C2.56,126.26,0,123.73,0,119Q0,88.4,0,57.75a7.73,7.73,0,0,1,0-1.18,2,2,0,0,1,2-1.85A2,2,0,0,1,4.2,56.49a7.66,7.66,0,0,1,0,1.44V101Z"/><path d="M33.7,69.45c0-2.78,0-5.36,0-8,0-1.81.75-2.56,2.54-2.57h7.49c1.87,0,2.58.74,2.59,2.66,0,2.57,0,5.15,0,7.86,2.65,0,5.18,0,7.71,0,2.14,0,2.81.67,2.81,2.83,0,2.41,0,4.82,0,7.23,0,1.79-.77,2.54-2.57,2.56-2.54,0-5.08,0-7.62,0a1.79,1.79,0,0,0-.33.09v5.92c0,4.41-.06,4.47-4.46,4.47-1.89,0-3.77,0-5.66,0-1.72,0-2.48-.78-2.5-2.49,0-2.58,0-5.17,0-7.75,0,0,0-.07-.16-.27H26.17c-2.35,0-3-.63-3-2.93s0-4.73,0-7.1c0-1.87.74-2.59,2.65-2.59C28.4,69.44,31,69.45,33.7,69.45Zm4.21-6.29v5.6c0,4.9,0,4.9-4.83,4.9h-5.6v4.2h6.26c4,0,4.17.16,4.17,4.23v6.23h4.21V80.67c0-2.14.68-2.8,2.84-2.81h7.59v-4.2h-6c-4.37,0-4.45-.08-4.45-4.5v-6Z"/></g></g></svg>