<svg xmlns="http://www.w3.org/2000/svg" viewBox="0 0 126.63 126.6"><g id="Capa_2" data-name="Capa 2"><g id="Capa_1-2" data-name="Capa 1"><path d="M31.43,0a3.35,3.35,0,0,1,1.75,3.36c0,9.56,0,19.11,0,28.67,0,6.38-2.79,11.14-8.43,14.14-.81.43-.71,1-.71,1.61q0,35.28,0,70.55a11.6,11.6,0,0,1-.24,2.57A7.37,7.37,0,0,1,16,126.56a7.48,7.48,0,0,1-6.79-7c0-.49,0-1,0-1.48q0-35.08,0-70.18a1.92,1.92,0,0,0-1.16-2,14.59,14.59,0,0,1-8-13.29C0,22.76,0,12.87,0,3A3.17,3.17,0,0,1,1.75,0H3.23A3.35,3.35,0,0,1,5,3.36c0,8.16,0,16.31,0,24.47V29.1H9.42V27.71c0-8.12,0-16.23,0-24.35A3.35,3.35,0,0,1,11.15,0h1.48a3.36,3.36,0,0,1,1.76,3.36c-.06,8.16,0,16.31,0,24.47V29.1h4.45V27.71c0-8.12,0-16.23,0-24.35A3.35,3.35,0,0,1,20.54,0H22a3.36,3.36,0,0,1,1.76,3.36c-.06,8.16,0,16.31,0,24.47V29.1h4.45V27.71c0-8.12,0-16.23,0-24.35A3.36,3.36,0,0,1,29.94,0ZM5.06,34.16a10.36,10.36,0,0,0,6.61,8.05c2.13.84,2.45,1.24,2.45,3.54V117.8c0,.37,0,.74,0,1.12a2.48,2.48,0,1,0,4.94-.06c0-.33,0-.66,0-1V45.69c0-2.21.35-2.69,2.39-3.46a10.12,10.12,0,0,0,6.23-6.42A14.42,14.42,0,0,0,28,34.16Z"/><path d="M126.63,120.4c-.09.23-.19.45-.26.69A7.41,7.41,0,0,1,111.8,119q0-17.55,0-35.08a2.55,2.55,0,0,0-.83-2.06c-1.41-1.32-2.77-2.7-4.1-4.1a12.22,12.22,0,0,1-3.48-8.6c0-11.2-.3-22.41.07-33.6.51-15.17,7.39-27,20-35.58h3.21ZM121.68,7.52c-.73.68-1.26,1.12-1.75,1.61a38.53,38.53,0,0,0-11.58,27.62c-.09,10.67,0,21.34,0,32a8.14,8.14,0,0,0,2.47,6c1.54,1.54,3,3.12,4.64,4.62a4,4,0,0,1,1.32,3.16c0,11.87,0,23.73,0,35.59a10.22,10.22,0,0,0,0,1.36,2.46,2.46,0,0,0,4.87,0,10.46,10.46,0,0,0,0-1.48V7.52Z"/><path d="M63.36,98.4A35.11,35.11,0,1,1,98.44,63.31,35.18,35.18,0,0,1,63.36,98.4ZM63.3,33.13A30.16,30.16,0,1,0,93.49,63.3,30.2,30.2,0,0,0,63.3,33.13Z"/><path d="M63.55,110.54a46.92,46.92,0,0,1-25.21-7.2,4.23,4.23,0,0,1-1.6-1.9A2.08,2.08,0,0,1,37.68,99a2.59,2.59,0,0,1,2.91,0,82,82,0,0,0,8.87,4.27,42.1,42.1,0,0,0,46.22-12.7c.27-.31.53-.63.81-.94a2.45,2.45,0,0,1,3.51-.46,2.36,2.36,0,0,1,.25,3.6,83.71,83.71,0,0,1-8.19,8A45.65,45.65,0,0,1,63.55,110.54Z"/><path d="M98.25,32c0,1.52-.47,2.3-1.42,2.73a2.41,2.41,0,0,1-2.75-.47c-1.37-1.26-2.66-2.6-4.1-3.76a41.53,41.53,0,0,0-30.5-9.28,42.32,42.32,0,0,0-15.1,4.26,2.47,2.47,0,0,1-3.57-1.06c-.61-1.29-.08-2.59,1.38-3.36l.77-.38a47.37,47.37,0,0,1,54.18,9.68A8.74,8.74,0,0,1,98.25,32Z"/><path d="M34.2,95.07a2.38,2.38,0,0,1-2.42,2.41,2.59,2.59,0,0,1-2.57-2.58,2.49,2.49,0,0,1,2.44-2.43A2.58,2.58,0,0,1,34.2,95.07Z"/><path d="M40.59,62.46c.74-9.15,5.08-15.88,13.42-19.89a2.49,2.49,0,0,1,3.59,1c.63,1.33.08,2.67-1.46,3.42-6.76,3.29-10.28,8.69-10.61,16.2a2.46,2.46,0,0,1-2.47,2.53,2.51,2.51,0,0,1-2.47-2.67Z"/><path d="M63.19,45.49a2.42,2.42,0,0,1-2.41-2.57,2.46,2.46,0,0,1,2.52-2.36,2.5,2.5,0,0,1,2.49,2.53A2.48,2.48,0,0,1,63.19,45.49Z"/></g></g></svg>